<svg width="19" height="20" viewBox="0 0 19 20" fill="none" xmlns="http://www.w3.org/2000/svg">
<path d="M18.673 7.41256C18.6154 7.24274 18.5093 7.09353 18.3678 6.98335C18.2263 6.87316 18.0556 6.80681 17.8769 6.79251L12.6477 6.377L10.3849 1.36798C10.3129 1.20665 10.1956 1.06963 10.0474 0.973442C9.8992 0.877257 9.72631 0.826025 9.54962 0.825928C9.37292 0.825831 9.19998 0.876874 9.05165 0.972896C8.90333 1.06892 8.78596 1.20582 8.71372 1.36707L6.4509 6.377L1.22175 6.79251C1.04606 6.80642 0.878097 6.87066 0.737959 6.97754C0.597821 7.08442 0.491442 7.2294 0.431546 7.39516C0.371651 7.56091 0.360777 7.74041 0.400224 7.91218C0.439672 8.08395 0.527771 8.24072 0.653982 8.36373L4.51829 12.1308L3.15161 18.0488C3.11011 18.2279 3.12341 18.4154 3.18979 18.5869C3.25616 18.7584 3.37254 18.9059 3.52383 19.0105C3.67511 19.115 3.85432 19.1716 4.03819 19.173C4.22207 19.1744 4.40212 19.1205 4.55498 19.0183L9.54932 15.6888L14.5437 19.0183C14.6999 19.1221 14.8842 19.1755 15.0716 19.1713C15.2591 19.1672 15.4409 19.1058 15.5924 18.9953C15.744 18.8848 15.858 18.7306 15.9193 18.5533C15.9806 18.3761 15.9861 18.1843 15.9351 18.0039L14.2575 12.1336L18.4181 8.38941C18.6905 8.14359 18.7905 7.76019 18.673 7.41256Z" fill="#F3CD03"/>
</svg>
