<svg width="59" height="75" viewBox="0 0 59 75" fill="none" xmlns="http://www.w3.org/2000/svg">
<path d="M44.753 10.5621C44.7514 10.5413 44.7449 10.523 44.7449 10.5022C44.7449 10.4822 44.7514 10.4631 44.753 10.4423V5.13665H37.4413C36.5658 5.13665 35.7615 4.63231 35.3753 3.83252C34.2282 1.46809 31.9249 0 29.3712 0C26.8109 0 24.5101 1.46809 23.3605 3.83169C22.9734 4.63148 22.1699 5.13665 21.2977 5.13665H13.9844V10.4714C13.9844 10.4822 13.9876 10.4914 13.9876 10.5022C13.9876 10.513 13.9844 10.5222 13.9844 10.5321V15.8685H44.753V10.5621Z" fill="#00A3E4"/>
<path d="M49.3604 12.8459V18.2123C49.3604 19.5056 48.3295 20.5551 47.058 20.5551H11.6835C10.4079 20.5551 9.37935 19.5056 9.37935 18.2123V12.8459H0V75.0001H54.1373C56.8202 75.0001 59 72.7814 59 70.0574V12.8459H49.3604Z" fill="#47545B"/>
<path d="M16.6215 62.398H9.04139C7.76904 62.398 6.73889 61.3494 6.73889 60.0569C6.73889 58.7611 7.76986 57.7133 9.04139 57.7133H16.6215C17.8954 57.7133 18.9239 58.7619 18.9239 60.0569C18.9248 61.3494 17.8954 62.398 16.6215 62.398ZM29.6992 62.398H24.0706C22.7999 62.398 21.7681 61.3494 21.7681 60.0569C21.7681 58.7611 22.8007 57.7133 24.0706 57.7133H29.6992C30.9699 57.7133 32.0017 58.7619 32.0017 60.0569C32.0017 61.3494 30.9691 62.398 29.6992 62.398ZM44.5517 62.398H37.3668C36.0928 62.398 35.0611 61.3494 35.0611 60.0569C35.0611 58.7611 36.0937 57.7133 37.3668 57.7133H44.5517C45.8208 57.7133 46.8542 58.7619 46.8542 60.0569C46.8542 61.3494 45.8208 62.398 44.5517 62.398ZM49.9544 48.2897H9.04139C7.76904 48.2897 6.73889 47.241 6.73889 45.9477C6.73889 44.6519 7.76986 43.6041 9.04139 43.6041H49.9544C51.2284 43.6041 52.2569 44.6527 52.2569 45.9477C52.2578 47.2419 51.2284 48.2897 49.9544 48.2897ZM49.9544 34.1888H9.04139C7.76904 34.1888 6.73889 33.1402 6.73889 31.8461C6.73889 30.5511 7.76986 29.5024 9.04139 29.5024H49.9544C51.2284 29.5024 52.2569 30.5519 52.2569 31.8461C52.2578 33.1402 51.2284 34.1888 49.9544 34.1888Z" fill="white"/>
</svg>
