<svg width="18" height="18" viewBox="0 0 18 18" fill="none" xmlns="http://www.w3.org/2000/svg">
<path d="M13.7659 12.8475L17.2733 16.4159L16.1145 17.595L12.6079 14.0259C11.3032 15.0902 9.6803 15.6691 8.00807 15.6667C3.9397 15.6667 0.637833 12.3067 0.637833 8.16669C0.637833 4.02669 3.9397 0.666687 8.00807 0.666687C12.0764 0.666687 15.3783 4.02669 15.3783 8.16669C15.3807 9.86835 14.8118 11.5198 13.7659 12.8475ZM12.1231 12.2292C13.1624 11.1416 13.7428 9.68371 13.7405 8.16669C13.7405 4.94335 11.1748 2.33335 8.00807 2.33335C4.84051 2.33335 2.27566 4.94335 2.27566 8.16669C2.27566 11.3892 4.84051 14 8.00807 14C9.49885 14.0024 10.9315 13.4118 12.0003 12.3542L12.1231 12.2292V12.2292Z" fill="black"/>
</svg>
