<svg width="68" height="75" viewBox="0 0 68 75" fill="none" xmlns="http://www.w3.org/2000/svg">
<path d="M56.0454 24.8803H1.87112C0.83767 24.8803 0 23.8807 0 22.6497V8.24063C0 7.00782 0.83767 6.01001 1.87112 6.01001H56.0454C57.0804 6.01001 57.9181 7.00782 57.9181 8.24063V22.6497C57.9181 23.8807 57.0804 24.8803 56.0454 24.8803ZM3.74374 20.4209H54.1751V10.4695H3.74374V20.4209Z" fill="#47545B"/>
<path d="M12.7736 16.6762C11.7401 16.6762 10.9025 15.6784 10.9025 14.4474V2.23062C10.9025 0.999593 11.7401 0 12.7736 0C13.8085 0 14.6462 0.999593 14.6462 2.23062V14.4474C14.6462 15.6784 13.8085 16.6762 12.7736 16.6762Z" fill="#47545B"/>
<path d="M28.9605 16.6762C27.9256 16.6762 27.0879 15.6784 27.0879 14.4474V2.23062C27.0879 0.999593 27.9256 0 28.9605 0C29.994 0 30.8316 0.999593 30.8316 2.23062V14.4474C30.8316 15.6784 29.994 16.6762 28.9605 16.6762Z" fill="#47545B"/>
<path d="M45.1437 16.6762C44.1088 16.6762 43.2711 15.6784 43.2711 14.4474V2.23062C43.2711 0.999593 44.1088 0 45.1437 0C46.1772 0 47.0149 0.999593 47.0149 2.23062V14.4474C47.0149 15.6784 46.1764 16.6762 45.1437 16.6762Z" fill="#47545B"/>
<path d="M16.4186 34.0626H10.741V40.8239H16.4186V34.0626Z" fill="#47545B"/>
<path d="M16.4186 53.3488H10.741V60.11H16.4186V53.3488Z" fill="#47545B"/>
<path d="M47.6523 40.1688C48.3218 40.5302 49.1057 40.3931 49.6579 39.8172L57.2777 31.8935C57.6849 31.4707 57.9181 30.8592 57.9181 30.2156V22.6524C57.9181 21.4213 57.0804 20.4218 56.0454 20.4218H1.87112C0.83767 20.4218 0 21.4213 0 22.6524V71.9885C0 73.2213 0.83767 74.2173 1.87112 74.2173H50.5987C54.6354 74.2173 57.9181 70.3053 57.9181 65.4951V43.7969C57.9181 42.9086 57.4757 42.1057 56.7912 41.7523C56.1112 41.3999 55.3124 41.561 54.7684 42.1698L47.1487 50.6597C46.7691 51.0807 46.5561 51.67 46.5561 52.2868V59.3694H26.7464V34.8086H46.5561V39.6241C46.5561 40.4991 46.9835 39.8057 47.6523 40.1688ZM19.5384 61.5947C19.5384 62.8275 18.6993 63.8253 17.6658 63.8253H9.4931C8.45965 63.8253 7.62198 62.8275 7.62198 61.5947V51.8631C7.62198 50.6321 8.45965 49.6325 9.4931 49.6325H17.6665C18.7 49.6325 19.5392 50.6321 19.5392 51.8631V61.5947H19.5384ZM19.5384 42.3104C19.5384 43.5415 18.6993 44.5393 17.6658 44.5393H9.4931C8.45965 44.5393 7.62198 43.5415 7.62198 42.3104V32.5771C7.62198 31.3443 8.45965 30.3465 9.4931 30.3465H17.6665C18.7 30.3465 19.5392 31.3443 19.5392 32.5771V42.3104H19.5384Z" fill="#47545B"/>
<path d="M36.6505 54.0929C36.5706 54.0929 36.4884 54.0858 36.4069 54.0742C35.8756 53.9923 35.3981 53.6416 35.0977 53.1111L29.6921 43.5576C29.1145 42.5357 29.3402 41.1498 30.1988 40.4627C31.0566 39.7711 32.2201 40.0434 32.797 41.0626L37.0174 48.5235L64.0702 20.3996C64.8481 19.5914 66.0318 19.6848 66.7118 20.6132C67.3918 21.5398 67.3103 22.9498 66.5324 23.7607L37.8813 53.5437C37.5383 53.9007 37.1004 54.0929 36.6505 54.0929Z" fill="#00A3E4"/>
</svg>
