<svg width="72" height="72" viewBox="0 0 72 72" fill="none" xmlns="http://www.w3.org/2000/svg">
<path d="M59.5084 13.324L69.4563 0.526964L2.92432 0.522217L12.8753 13.324H59.5084Z" fill="#47545B"/>
<path d="M62.3726 16.9366C61.9485 17.4818 61.295 17.8022 60.6034 17.8022H38.4298V33.3795C43.8876 34.4302 48.0232 39.2376 48.0232 44.9992C48.0232 51.5219 42.7166 56.8317 36.1899 56.8317C29.6632 56.8317 24.3518 51.5219 24.3518 44.9992C24.3518 39.2384 28.493 34.431 33.9524 33.3795V17.8022H11.7779C11.0872 17.8022 10.4353 17.4826 10.0104 16.9366L0.584717 4.81213V71.2895H66.4228C69.3843 71.2895 71.7959 68.8787 71.7959 65.9148V4.81213L62.3726 16.9366Z" fill="#47545B"/>
<path d="M28.8317 44.9984C28.8317 49.0534 32.1326 52.3511 36.1899 52.3511C40.2472 52.3511 43.5474 49.0534 43.5474 44.9984C43.5474 40.9403 40.2472 37.6378 36.1899 37.6378C32.1326 37.6378 28.8317 40.9403 28.8317 44.9984Z" fill="#00A3E4"/>
</svg>
